<?xml version="1.0" encoding="UTF-8"?>
<svg xmlns="http://www.w3.org/2000/svg" xmlns:xlink="http://www.w3.org/1999/xlink" width="32px" height="37px" viewBox="0 0 32 36" version="1.1">
<g id="surface1">
<path style=" stroke:none;fill-rule:nonzero;fill:rgb(0%,0%,0%);fill-opacity:1;" d="M 31.367188 31.855469 L 21.226562 27 L 31.367188 22.144531 C 31.933594 21.867188 32.164062 21.191406 31.878906 20.636719 L 30.855469 18.621094 C 30.574219 18.066406 29.886719 17.839844 29.324219 18.117188 L 16 24.496094 L 2.675781 18.117188 C 2.113281 17.839844 1.425781 18.066406 1.144531 18.621094 L 0.121094 20.636719 C -0.160156 21.191406 0.0664062 21.867188 0.632812 22.144531 L 10.773438 27 L 0.632812 31.855469 C 0.0664062 32.132812 -0.160156 32.808594 0.121094 33.367188 L 1.144531 35.378906 C 1.425781 35.933594 2.113281 36.160156 2.675781 35.882812 L 16 29.503906 L 29.324219 35.882812 C 29.886719 36.160156 30.574219 35.933594 30.855469 35.378906 L 31.878906 33.367188 C 32.160156 32.808594 31.933594 32.132812 31.367188 31.855469 Z M 10.714844 16.683594 L 10.324219 18.503906 C 10.132812 19.390625 10.710938 20.25 11.496094 20.25 L 20.503906 20.25 C 21.292969 20.25 21.871094 19.390625 21.679688 18.503906 L 21.285156 16.683594 C 24.269531 15.109375 26.285156 12.273438 26.285156 9 C 26.285156 4.03125 21.679688 0 16 0 C 10.320312 0 5.714844 4.03125 5.714844 9 C 5.714844 12.273438 7.730469 15.109375 10.714844 16.683594 Z M 20 7.875 C 21.261719 7.875 22.285156 8.882812 22.285156 10.125 C 22.285156 11.367188 21.261719 12.375 20 12.375 C 18.738281 12.375 17.714844 11.367188 17.714844 10.125 C 17.714844 8.882812 18.738281 7.875 20 7.875 Z M 12 7.875 C 13.261719 7.875 14.285156 8.882812 14.285156 10.125 C 14.285156 11.367188 13.261719 12.375 12 12.375 C 10.738281 12.375 9.714844 11.367188 9.714844 10.125 C 9.714844 8.882812 10.738281 7.875 12 7.875 Z M 12 7.875 "/>
</g>
</svg>
