<?xml version="1.0" encoding="UTF-8"?>
<svg xmlns="http://www.w3.org/2000/svg" xmlns:xlink="http://www.w3.org/1999/xlink" width="32px" height="42px" viewBox="0 0 32 42" version="1.1">
<g id="surface1">
<path style=" stroke:none;fill-rule:nonzero;fill:rgb(0%,0%,0%);fill-opacity:1;" d="M 30.667969 3.9375 C 31.398438 3.9375 32 3.347656 32 2.625 L 32 1.3125 C 32 0.589844 31.398438 0 30.667969 0 L 1.332031 0 C 0.601562 0 0 0.589844 0 1.3125 L 0 2.625 C 0 3.347656 0.601562 3.9375 1.332031 3.9375 L 2.667969 3.9375 L 2.667969 16.792969 C 0.984375 17.621094 0 18.613281 0 19.6875 C 0 25.199219 2.882812 30.039062 7.234375 32.851562 L 5.449219 38.613281 C 4.925781 40.292969 6.207031 42 8 42 L 24 42 C 25.792969 42 27.074219 40.292969 26.550781 38.613281 L 24.765625 32.851562 C 29.117188 30.039062 32 25.199219 32 19.6875 C 32 18.613281 31.015625 17.621094 29.332031 16.792969 L 29.332031 3.9375 Z M 6.667969 5.90625 C 6.667969 5.546875 6.964844 5.25 7.332031 5.25 L 11.332031 5.25 C 11.699219 5.25 12 5.546875 12 5.90625 L 12 7.21875 C 12 7.578125 11.699219 7.875 11.332031 7.875 L 7.332031 7.875 C 6.964844 7.875 6.667969 7.578125 6.667969 7.21875 Z M 16 22.3125 C 9.574219 22.3125 4.367188 21.140625 4.367188 19.6875 C 4.367188 18.234375 9.574219 17.0625 16 17.0625 C 22.425781 17.0625 27.632812 18.234375 27.632812 19.6875 C 27.632812 21.140625 22.425781 22.3125 16 22.3125 Z M 16 22.3125 "/>
</g>
</svg>
