<?xml version="1.0" encoding="UTF-8"?>
<svg xmlns="http://www.w3.org/2000/svg" xmlns:xlink="http://www.w3.org/1999/xlink" width="32px" height="39px" viewBox="0 0 32 39" version="1.1">
<g id="surface1">
<path style=" stroke:none;fill-rule:nonzero;fill:rgb(0%,0%,0%);fill-opacity:1;" d="M 15.992188 1.15625 C 16.054688 1.515625 17.230469 8.355469 17.230469 10.96875 C 17.230469 14.953125 15.09375 17.792969 11.929688 18.9375 L 12.921875 37.074219 C 12.976562 38.117188 12.136719 39 11.078125 39 L 6.152344 39 C 5.101562 39 4.253906 38.125 4.308594 37.074219 L 5.300781 18.9375 C 2.128906 17.792969 0 14.945312 0 10.96875 C 0 8.347656 1.175781 1.515625 1.238281 1.15625 C 1.484375 -0.386719 4.722656 -0.410156 4.921875 1.242188 L 4.921875 11.996094 C 5.023438 12.257812 6.085938 12.242188 6.152344 11.996094 C 6.261719 10.070312 6.761719 1.394531 6.769531 1.195312 C 7.023438 -0.386719 10.207031 -0.386719 10.453125 1.195312 C 10.46875 1.402344 10.960938 10.070312 11.070312 11.996094 C 11.136719 12.242188 12.207031 12.257812 12.300781 11.996094 L 12.300781 1.242188 C 12.5 -0.402344 15.746094 -0.386719 15.992188 1.15625 Z M 25.160156 22.921875 L 24.007812 37.019531 C 23.914062 38.085938 24.769531 39 25.847656 39 L 30.152344 39 C 31.175781 39 32 38.183594 32 37.171875 L 32 1.828125 C 32 0.824219 31.175781 0 30.152344 0 C 23.808594 0 13.125 13.597656 25.160156 22.921875 Z M 25.160156 22.921875 "/>
</g>
</svg>
